<svg xmlns="http://www.w3.org/2000/svg" width="36" height="36" viewBox="0 0 36 36"><g><g><path fill="#fff" d="M9.341 20.274L22.822 6.828l6.306 6.152-13.556 13.523-8.584 2.389zM34.329 7.781l-3.28 3.28-6.326-6.133L28.1 1.551a4.405 4.405 0 0 1 6.229 6.23zm1.29 4.938v16.173a6.606 6.606 0 0 1-6.607 6.607H6.988a6.607 6.607 0 0 1-6.607-6.607V6.868A6.608 6.608 0 0 1 6.988.26h16.17l-4.414 4.405H6.988a2.202 2.202 0 0 0-2.202 2.202v22.024c0 1.217.986 2.202 2.202 2.202h22.024a2.201 2.201 0 0 0 2.202-2.202v-11.77z"/></g></g></svg>